<?xml version="1.0" encoding="UTF-8"?>
<svg id="Layer_1" xmlns="http://www.w3.org/2000/svg" version="1.1" viewBox="0 0 407 440">
  <!-- Generator: Adobe Illustrator 29.6.1, SVG Export Plug-In . SVG Version: 2.1.1 Build 9)  -->
  <defs>
    <style>
      .st0, .st1 {
        fill: #b5b5b5;
      }

      .st1 {
        stroke: #000;
        stroke-miterlimit: 10;
        stroke-width: .5px;
      }

      .st2 {
        fill: #1a1a1a;
      }
    </style>
  </defs>
  <g>
    <rect class="st2" x="282.48" y="174.5" width="5.59" height="194.23" transform="translate(-108.5 281.28) rotate(-45)"/>
    <polygon class="st0" points="360.71 335.92 363.09 333.53 220.68 198.88 218.59 200.97 360.71 335.92"/>
    <line class="st1" x1="360.71" y1="335.92" x2="346.37" y2="352.64"/>
    <line class="st1" x1="355.93" y1="331.14" x2="341.6" y2="347.86"/>
    <line class="st1" x1="351.15" y1="326.36" x2="336.82" y2="343.08"/>
    <line class="st1" x1="346.37" y1="321.59" x2="332.04" y2="338.31"/>
    <line class="st1" x1="341.6" y1="316.81" x2="327.27" y2="333.53"/>
    <line class="st1" x1="336.82" y1="312.03" x2="322.49" y2="328.75"/>
    <line class="st1" x1="332.04" y1="307.26" x2="317.71" y2="323.98"/>
    <line class="st1" x1="327.27" y1="302.48" x2="312.93" y2="319.2"/>
    <line class="st1" x1="322.49" y1="297.7" x2="308.16" y2="314.42"/>
    <line class="st1" x1="317.71" y1="292.93" x2="303.38" y2="309.64"/>
    <line class="st1" x1="312.93" y1="288.15" x2="298.6" y2="304.87"/>
    <line class="st1" x1="308.16" y1="283.37" x2="293.83" y2="300.09"/>
    <line class="st1" x1="302.19" y1="279.79" x2="287.85" y2="296.51"/>
    <line class="st1" x1="297.41" y1="275.01" x2="283.08" y2="291.73"/>
    <line class="st1" x1="292.63" y1="270.23" x2="278.3" y2="286.95"/>
    <line class="st1" x1="287.85" y1="265.46" x2="273.52" y2="282.18"/>
    <line class="st1" x1="283.08" y1="260.68" x2="268.75" y2="277.4"/>
    <line class="st1" x1="278.3" y1="255.9" x2="263.97" y2="272.62"/>
    <line class="st1" x1="273.52" y1="251.13" x2="259.19" y2="267.85"/>
    <line class="st1" x1="268.75" y1="246.35" x2="254.41" y2="263.07"/>
    <line class="st1" x1="263.97" y1="241.57" x2="249.64" y2="258.29"/>
    <line class="st1" x1="259.19" y1="236.79" x2="244.86" y2="253.51"/>
    <line class="st1" x1="254.41" y1="232.02" x2="240.08" y2="248.74"/>
    <line class="st1" x1="249.64" y1="227.24" x2="235.31" y2="243.96"/>
    <line class="st1" x1="244.86" y1="222.46" x2="230.53" y2="239.18"/>
    <line class="st1" x1="240.08" y1="217.69" x2="225.75" y2="234.41"/>
    <line class="st1" x1="235.31" y1="212.91" x2="220.97" y2="229.63"/>
    <line class="st1" x1="230.53" y1="208.13" x2="216.2" y2="224.85"/>
    <line class="st1" x1="225.75" y1="203.35" x2="211.42" y2="220.07"/>
    <line class="st1" x1="220.97" y1="198.58" x2="206.64" y2="215.3"/>
    <line class="st1" x1="357.12" y1="339.5" x2="216.2" y2="203.35"/>
    <line class="st1" x1="352.94" y1="346.07" x2="210.82" y2="208.73"/>
  </g>
  <g>
    <rect class="st2" x="190.92" y="121.92" width="194.23" height="5.59" transform="translate(-3.82 240.2) rotate(-45)"/>
    <polygon class="st0" points="352.35 49.29 349.96 46.9 215.3 189.32 217.39 191.41 352.35 49.29"/>
    <line class="st1" x1="352.35" y1="49.29" x2="369.07" y2="63.62"/>
    <line class="st1" x1="347.57" y1="54.07" x2="364.29" y2="68.4"/>
    <line class="st1" x1="342.79" y1="58.85" x2="359.51" y2="73.18"/>
    <line class="st1" x1="338.01" y1="63.62" x2="354.73" y2="77.95"/>
    <line class="st1" x1="333.24" y1="68.4" x2="349.96" y2="82.73"/>
    <line class="st1" x1="328.46" y1="73.18" x2="345.18" y2="87.51"/>
    <line class="st1" x1="323.68" y1="77.95" x2="340.4" y2="92.29"/>
    <line class="st1" x1="318.91" y1="82.73" x2="335.63" y2="97.06"/>
    <line class="st1" x1="314.13" y1="87.51" x2="330.85" y2="101.84"/>
    <line class="st1" x1="309.35" y1="92.29" x2="326.07" y2="106.62"/>
    <line class="st1" x1="304.57" y1="97.06" x2="321.29" y2="111.39"/>
    <line class="st1" x1="299.8" y1="101.84" x2="316.52" y2="116.17"/>
    <line class="st1" x1="296.21" y1="107.81" x2="312.93" y2="122.14"/>
    <line class="st1" x1="291.44" y1="112.59" x2="308.16" y2="126.92"/>
    <line class="st1" x1="286.66" y1="117.37" x2="303.38" y2="131.7"/>
    <line class="st1" x1="281.88" y1="122.14" x2="298.6" y2="136.47"/>
    <line class="st1" x1="277.11" y1="126.92" x2="293.83" y2="141.25"/>
    <line class="st1" x1="272.33" y1="131.7" x2="289.05" y2="146.03"/>
    <line class="st1" x1="267.55" y1="136.47" x2="284.27" y2="150.81"/>
    <line class="st1" x1="262.77" y1="141.25" x2="279.49" y2="155.58"/>
    <line class="st1" x1="258" y1="146.03" x2="274.72" y2="160.36"/>
    <line class="st1" x1="253.22" y1="150.81" x2="269.94" y2="165.14"/>
    <line class="st1" x1="248.44" y1="155.58" x2="265.16" y2="169.91"/>
    <line class="st1" x1="243.67" y1="160.36" x2="260.39" y2="174.69"/>
    <line class="st1" x1="238.89" y1="165.14" x2="255.61" y2="179.47"/>
    <line class="st1" x1="234.11" y1="169.91" x2="250.83" y2="184.25"/>
    <line class="st1" x1="229.33" y1="174.69" x2="246.05" y2="189.02"/>
    <line class="st1" x1="224.56" y1="179.47" x2="241.28" y2="193.8"/>
    <line class="st1" x1="219.78" y1="184.25" x2="236.5" y2="198.58"/>
    <line class="st1" x1="215" y1="189.02" x2="231.72" y2="203.35"/>
    <line class="st1" x1="355.93" y1="52.87" x2="219.78" y2="193.8"/>
    <line class="st1" x1="362.5" y1="57.05" x2="225.15" y2="199.17"/>
  </g>
  <g>
    <rect class="st2" x="135.96" y="27.23" width="5.59" height="194.23" transform="translate(-47.29 134.53) rotate(-45)"/>
    <polygon class="st0" points="63.33 60.04 60.94 62.43 203.36 197.08 205.45 194.99 63.33 60.04"/>
    <line class="st1" x1="63.33" y1="60.04" x2="77.66" y2="43.32"/>
    <line class="st1" x1="68.11" y1="64.82" x2="82.44" y2="48.1"/>
    <line class="st1" x1="72.88" y1="69.59" x2="87.22" y2="52.87"/>
    <line class="st1" x1="77.66" y1="74.37" x2="91.99" y2="57.65"/>
    <line class="st1" x1="82.44" y1="79.15" x2="96.77" y2="62.43"/>
    <line class="st1" x1="87.22" y1="83.93" x2="101.55" y2="67.21"/>
    <line class="st1" x1="91.99" y1="88.7" x2="106.32" y2="71.98"/>
    <line class="st1" x1="96.77" y1="93.48" x2="111.1" y2="76.76"/>
    <line class="st1" x1="101.55" y1="98.26" x2="115.88" y2="81.54"/>
    <line class="st1" x1="106.32" y1="103.03" x2="120.66" y2="86.31"/>
    <line class="st1" x1="111.1" y1="107.81" x2="125.43" y2="91.09"/>
    <line class="st1" x1="115.88" y1="112.59" x2="130.21" y2="95.87"/>
    <line class="st1" x1="121.85" y1="116.17" x2="136.18" y2="99.45"/>
    <line class="st1" x1="126.63" y1="120.95" x2="140.96" y2="104.23"/>
    <line class="st1" x1="131.4" y1="125.73" x2="145.74" y2="109.01"/>
    <line class="st1" x1="136.18" y1="130.5" x2="150.51" y2="113.78"/>
    <line class="st1" x1="140.96" y1="135.28" x2="155.29" y2="118.56"/>
    <line class="st1" x1="145.74" y1="140.06" x2="160.07" y2="123.34"/>
    <line class="st1" x1="150.51" y1="144.83" x2="164.84" y2="128.11"/>
    <line class="st1" x1="155.29" y1="149.61" x2="169.62" y2="132.89"/>
    <line class="st1" x1="160.07" y1="154.39" x2="174.4" y2="137.67"/>
    <line class="st1" x1="164.84" y1="159.17" x2="179.17" y2="142.45"/>
    <line class="st1" x1="169.62" y1="163.94" x2="183.95" y2="147.22"/>
    <line class="st1" x1="174.4" y1="168.72" x2="188.73" y2="152"/>
    <line class="st1" x1="179.17" y1="173.5" x2="193.51" y2="156.78"/>
    <line class="st1" x1="183.95" y1="178.27" x2="198.28" y2="161.55"/>
    <line class="st1" x1="188.73" y1="183.05" x2="203.06" y2="166.33"/>
    <line class="st1" x1="193.51" y1="187.83" x2="207.84" y2="171.11"/>
    <line class="st1" x1="198.28" y1="192.61" x2="212.61" y2="175.89"/>
    <line class="st1" x1="203.06" y1="197.38" x2="217.39" y2="180.66"/>
    <line class="st1" x1="66.91" y1="56.46" x2="207.84" y2="192.61"/>
    <line class="st1" x1="71.09" y1="49.89" x2="213.21" y2="187.23"/>
  </g>
  <g>
    <rect class="st2" x="37.69" y="269.64" width="194.23" height="5.59" transform="translate(-153.16 175.11) rotate(-45)"/>
    <polygon class="st0" points="70.5 347.86 72.88 350.25 207.54 207.83 205.45 205.74 70.5 347.86"/>
    <line class="st1" x1="70.5" y1="347.86" x2="53.78" y2="333.53"/>
    <line class="st1" x1="75.27" y1="343.08" x2="58.55" y2="328.75"/>
    <line class="st1" x1="80.05" y1="338.31" x2="63.33" y2="323.98"/>
    <line class="st1" x1="84.83" y1="333.53" x2="68.11" y2="319.2"/>
    <line class="st1" x1="89.6" y1="328.75" x2="72.88" y2="314.42"/>
    <line class="st1" x1="94.38" y1="323.98" x2="77.66" y2="309.64"/>
    <line class="st1" x1="99.16" y1="319.2" x2="82.44" y2="304.87"/>
    <line class="st1" x1="103.94" y1="314.42" x2="87.22" y2="300.09"/>
    <line class="st1" x1="108.71" y1="309.64" x2="91.99" y2="295.31"/>
    <line class="st1" x1="113.49" y1="304.87" x2="96.77" y2="290.54"/>
    <line class="st1" x1="118.27" y1="300.09" x2="101.55" y2="285.76"/>
    <line class="st1" x1="123.04" y1="295.31" x2="106.32" y2="280.98"/>
    <line class="st1" x1="126.63" y1="289.34" x2="109.91" y2="275.01"/>
    <line class="st1" x1="131.4" y1="284.57" x2="114.68" y2="270.23"/>
    <line class="st1" x1="136.18" y1="279.79" x2="119.46" y2="265.46"/>
    <line class="st1" x1="140.96" y1="275.01" x2="124.24" y2="260.68"/>
    <line class="st1" x1="145.74" y1="270.23" x2="129.02" y2="255.9"/>
    <line class="st1" x1="150.51" y1="265.46" x2="133.79" y2="251.13"/>
    <line class="st1" x1="155.29" y1="260.68" x2="138.57" y2="246.35"/>
    <line class="st1" x1="160.07" y1="255.9" x2="143.35" y2="241.57"/>
    <line class="st1" x1="164.84" y1="251.13" x2="148.12" y2="236.79"/>
    <line class="st1" x1="169.62" y1="246.35" x2="152.9" y2="232.02"/>
    <line class="st1" x1="174.4" y1="241.57" x2="157.68" y2="227.24"/>
    <line class="st1" x1="179.17" y1="236.79" x2="162.46" y2="222.46"/>
    <line class="st1" x1="183.95" y1="232.02" x2="167.23" y2="217.69"/>
    <line class="st1" x1="188.73" y1="227.24" x2="172.01" y2="212.91"/>
    <line class="st1" x1="193.51" y1="222.46" x2="176.79" y2="208.13"/>
    <line class="st1" x1="198.28" y1="217.69" x2="181.56" y2="203.35"/>
    <line class="st1" x1="203.06" y1="212.91" x2="186.34" y2="198.58"/>
    <line class="st1" x1="207.84" y1="208.13" x2="191.12" y2="193.8"/>
    <line class="st1" x1="66.91" y1="344.28" x2="203.06" y2="203.35"/>
    <line class="st1" x1="60.34" y1="340.1" x2="197.69" y2="197.98"/>
  </g>
</svg>