<?xml version="1.0" encoding="UTF-8"?>
<svg id="Layer_1" xmlns="http://www.w3.org/2000/svg" version="1.1" viewBox="0 0 407 440">
  <!-- Generator: Adobe Illustrator 29.6.1, SVG Export Plug-In . SVG Version: 2.1.1 Build 9)  -->
  <defs>
    <style>
      .st0 {
        fill: #fcbd3a;
      }

      .st0, .st1, .st2, .st3, .st4 {
        stroke: #000;
        stroke-miterlimit: 10;
      }

      .st1 {
        fill: #1b222a;
      }

      .st2 {
        fill: #fff1d7;
      }

      .st5 {
        fill: #fff;
      }

      .st6 {
        fill: #e53d39;
      }

      .st3 {
        fill: #b5b5b5;
      }

      .st4 {
        fill: #4f4f51;
        stroke-width: .75px;
      }
    </style>
  </defs>
  <rect class="st1" x="155.72" y="397.28" width="94.58" height="42.22"/>
  <rect class="st3" x="155.72" y="378.7" width="94.58" height="20.27"/>
  <polygon class="st1" points="230.04 336.48 177.68 336.48 155.72 358.43 155.72 382.08 250.31 382.08 250.31 358.43 230.04 336.48"/>
  <path class="st2" d="M172.57,340.45s-1.69-1.69,5.07-1.69,10.13,3.38,10.13,3.38c0,0,6.76,5.07,15.2,5.07s21.96-6.76,21.96-6.76c0,0,3.38-3.38,6.76-3.38s6.76,3.38,6.76,3.38v-114.85l-66.06-2.69.19,117.54Z"/>
  <path class="st0" d="M175.95,333.69s2.89-1.69,10.13,1.69c7.25,3.38,11.82,5.07,11.82,5.07,0,0,3.38,1.69,8.44,1.69s16.37-4.97,16.37-4.97c0,0,3.9-3.47,7.28-3.47h5.07v-108.09l-59.11-1.69v109.78Z"/>
  <polygon class="st0" points="167.87 223.91 175.95 207.88 238.44 210.45 245.2 225.6 167.87 223.91"/>
  <path class="st4" d="M238.44,210.4s-4.89-12.13-8.27-18.89c-3.38-6.76-23.65-23.65-23.65-23.65l-.18.31s-20.27,16.89-23.65,23.65c-3.38,6.76-6.76,16.05-6.76,16.05l30.58,1.26v-.42l31.91,1.68Z"/>
  <polygon class="st6" points="214.8 188.44 208.04 188.44 204.66 192.24 204.66 198.58 204.66 204.91 208.04 208.71 214.8 208.71 218.18 204.91 218.18 198.58 218.18 192.24 214.8 188.44"/>
  <polygon class="st5" points="213.48 199.52 216.79 198.73 213.48 197.94 215.26 195.04 212.36 196.82 211.57 193.51 210.78 196.82 207.88 195.04 209.66 197.94 206.35 198.73 209.66 199.52 207.88 202.42 210.78 200.64 211.57 203.95 212.36 200.64 215.26 202.42 213.48 199.52"/>
</svg>