<svg width="246" height="320" viewBox="0 0 246 320" fill="none" xmlns="http://www.w3.org/2000/svg">
<g clip-path="url(#clip0_1_12)">
<path d="M147.66 66.496C147.66 66.496 145.497 77.4287 144.814 84.3333C144.131 91.2379 144.814 97.3402 144.814 97.3402C144.814 97.3402 119.563 105.053 118.198 106.588C116.832 108.124 113.418 110.427 113.418 110.427C113.418 110.427 107.274 105.826 106.591 104.291C105.908 102.755 104.543 89.7137 104.543 89.7137L103.86 72.0655" fill="#CEA48D"/>
<path d="M147.66 66.496C147.66 66.496 145.497 77.4287 144.814 84.3333C144.131 91.2379 144.814 97.3402 144.814 97.3402C144.814 97.3402 119.563 105.053 118.198 106.588C116.832 108.124 113.418 110.427 113.418 110.427C113.418 110.427 107.274 105.826 106.591 104.291C105.908 102.755 104.543 89.7137 104.543 89.7137L103.86 72.0655" stroke="black" stroke-width="1.31" stroke-miterlimit="10"/>
<path d="M100.509 19.1839L93.1077 26.8562L94.7544 56.0159L100.509 77.1422L110.378 86.7055C110.378 86.7055 114.491 90.5445 121.893 89.7767C129.294 89.0089 139.162 80.5687 139.162 80.5687L150.678 63.6883L151.498 46.8079C151.498 46.8079 149.031 26.0884 144.917 22.2551C140.803 18.416 126.821 15.3505 126.821 15.3505L100.503 19.1896L100.509 19.1839Z" fill="#CEA48D" stroke="black" stroke-width="1.39" stroke-miterlimit="10"/>
<path d="M119.615 4.22296C119.615 4.22296 107.319 3.45514 101.943 7.29421C96.5675 11.1333 89.6481 21.1034 89.6481 21.1034C89.6481 21.1034 89.6481 38.7516 90.4169 41.8228C91.1857 44.8941 95.0241 54.1021 95.0241 54.1021C95.0241 54.1021 93.4864 40.2929 93.4864 39.5251C93.4864 38.7573 96.5617 22.6447 96.5617 22.6447C96.5617 22.6447 105.013 18.0436 109.62 18.0436C114.227 18.0436 121.147 15.7401 121.147 15.7401L119.609 4.22869L119.615 4.22296Z" fill="#828237" stroke="black" stroke-width="1.34" stroke-miterlimit="10"/>
<path d="M150.345 49.4895C150.345 49.4895 151.882 37.978 146.501 32.6091C141.125 27.2401 132.673 19.5677 132.673 19.5677L121.147 15.7287L119.609 4.21723C119.609 4.21723 119.609 0.378174 126.523 0.378174C133.436 0.378174 138.468 4.15421 138.468 4.15421L154.952 19.562L159.559 34.9068V46.5099C159.559 46.5099 157.253 44.8826 154.952 46.4183C152.651 47.9539 150.345 49.4895 150.345 49.4895Z" fill="#828237" stroke="black" stroke-width="1.34" stroke-miterlimit="10"/>
<path d="M149.582 50.2573C149.582 50.2573 152.657 45.6562 154.189 45.6562C155.721 45.6562 158.033 44.1206 158.796 47.1918C159.559 50.2631 159.565 54.0964 158.027 57.1676C156.49 60.2389 155.721 63.3044 153.42 64.84C151.119 66.3757 149.576 67.1435 149.576 67.1435" fill="#CEA48D"/>
<path d="M149.582 50.2573C149.582 50.2573 152.657 45.6562 154.189 45.6562C155.721 45.6562 158.033 44.1206 158.796 47.1918C159.559 50.2631 159.565 54.0964 158.027 57.1676C156.49 60.2389 155.721 63.3044 153.42 64.84C151.119 66.3757 149.576 67.1435 149.576 67.1435" stroke="black" stroke-width="1.39" stroke-miterlimit="10"/>
<path d="M124.721 41.5936C124.17 42.6766 123.62 43.9544 123.184 45.4327C122.082 49.14 125.479 55.0074 125.874 55.7924C126.643 57.328 125.76 60.5483 124.222 59.7805C122.684 59.0126 121.916 59.7805 121.916 59.7805C121.916 59.7805 121.147 60.5483 120.378 60.5483C119.609 60.5483 118.84 59.7805 118.84 59.7805C118.84 59.7805 118.071 59.3966 116.534 60.1644C114.996 60.9322 113.843 57.477 114.612 55.9414C115.002 55.1564 118.399 49.2889 117.303 45.5817C116.867 44.1091 116.322 42.8256 115.765 41.7426" fill="#CEA48D"/>
<path d="M124.721 41.5936C124.17 42.6766 123.62 43.9544 123.184 45.4327C122.082 49.14 125.479 55.0074 125.874 55.7924C126.643 57.328 125.76 60.5483 124.222 59.7805C122.684 59.0127 121.916 59.7805 121.916 59.7805C121.916 59.7805 121.147 60.5483 120.378 60.5483C119.609 60.5483 118.84 59.7805 118.84 59.7805C118.84 59.7805 118.071 59.3966 116.534 60.1644C114.996 60.9322 113.843 57.477 114.612 55.9414C115.002 55.1564 118.399 49.2889 117.303 45.5817C116.867 44.1091 116.322 42.8256 115.765 41.7426" stroke="black" stroke-width="1.37" stroke-miterlimit="10"/>
<path d="M114.239 36.7633C114.239 36.7633 103.481 35.9955 101.18 38.2989" stroke="#6B6B34" stroke-width="5.36" stroke-miterlimit="10"/>
<path d="M125.76 36.7633C125.76 36.7633 136.517 35.9955 138.818 38.2989" stroke="#6B6B34" stroke-width="5.36" stroke-miterlimit="10"/>
<path d="M119.615 63.3903C119.615 63.3903 119.678 62.0839 115.834 62.0839C111.99 62.0839 107.319 65.923 107.319 65.923L106.614 66.6908L116.603 65.1552L119.615 64.8859V63.3903Z" fill="#6B6B34"/>
<path d="M121.084 63.3101C121.084 63.3101 120.889 62.0151 124.71 61.6255C128.531 61.2359 134.211 65.1551 134.211 65.1551L134.349 65.264L124.257 64.7598L121.233 64.7999L121.078 63.3101H121.084Z" fill="#6B6B34"/>
<path d="M111.164 108.118C111.164 108.118 125.823 102.016 134.624 100.463C143.425 98.9103 144.625 95.5869 156.323 94.9451C168.022 94.3034 178.005 113.487 178.005 113.487C178.005 113.487 166.479 110.416 155.727 111.184C144.975 111.952 130.51 115.361 125.834 115.957C121.153 116.553 108.094 113.481 104.25 112.719C100.406 111.952 91.9545 109.648 91.9545 109.648V103.397L93.4922 99.6781L95.1388 98.4404C95.1388 98.4404 95.2765 91.9255 95.9191 91.9656C96.5617 92.0057 100.09 88.8542 101.783 91.9656C103.475 95.0769 102.907 100.813 105.495 103.317C108.083 105.821 111.158 108.118 111.158 108.118H111.164Z" fill="#091928" stroke="black" stroke-width="1.34" stroke-miterlimit="10"/>
<path d="M118.88 113.779C118.88 113.779 141.893 111.19 157.264 111.19C172.635 111.19 172.629 108.886 172.629 108.886L187.099 115.143L207.972 131.135C207.972 131.135 219.292 137.272 221.702 150.703C224.106 164.128 224.875 174.872 224.875 174.872C224.875 174.872 222.568 178.998 224.875 183.072C227.181 187.146 231.019 190.985 231.019 190.985C231.019 190.985 234.095 198.657 235.627 200.193C237.159 201.728 242.54 202.496 243.309 207.097C244.078 211.698 243.309 213.922 243.309 216.649C243.309 219.377 245.616 231.65 245.616 234.721C245.616 237.793 241.008 251.602 241.008 251.602L237.933 259.274C237.933 259.274 243.309 248.53 224.875 242.394C206.434 236.257 204.897 240.09 204.897 240.09C204.897 240.09 200.289 231.65 204.897 231.65H211.81C211.81 231.65 198.752 223.978 205.665 223.978C212.579 223.978 183.697 192.52 181.235 184.08C178.774 175.64 177.236 162.593 177.236 162.593L182.245 206.69C182.245 206.69 187.22 217.835 184.919 232.418C182.612 246.995 177.236 281.523 177.236 288.428C177.236 295.333 170.323 316.052 168.785 319.118C167.247 322.183 107.319 309.91 99.637 308.374C91.9545 306.838 77.3584 307.606 68.9071 306.838C60.4558 306.071 38.1771 303.767 38.1771 303.767C38.1771 303.767 54.3109 283.048 47.3973 281.518C40.4836 279.982 44.322 273.845 45.0908 270.774C45.8596 267.703 57.3862 246.989 57.3862 244.686C57.3862 243.763 56.3936 236.28 55.2576 227.507C54.8101 224.029 54.3339 220.351 53.8921 216.798C52.67 206.983 51.6717 198.124 52.0102 197.116C52.779 194.812 56.6174 154.147 56.6174 154.147L54.3109 230.109C54.3109 230.109 48.9349 223.204 46.6284 223.204C44.322 223.204 33.5699 222.436 33.5699 222.436L41.2524 215.532C41.2524 215.532 41.2524 204.788 42.0212 204.02C42.7901 203.252 43.5589 203.252 43.5589 198.651C43.5589 194.05 48.9349 153.379 48.9349 153.379C48.9349 153.379 52.0102 126.523 55.8486 122.689C59.6927 118.85 70.4447 112.714 73.52 112.714C76.5953 112.714 87.3473 106.577 91.1914 106.577C95.0355 106.577 118.886 113.768 118.886 113.768L118.88 113.779Z" fill="#091928" stroke="black" stroke-width="1.34" stroke-miterlimit="10"/>
<path d="M21.2688 263.113C21.2688 263.113 18.1935 259.274 16.6616 258.512C15.1297 257.75 15.8928 255.441 13.5863 256.209C11.2799 256.976 8.97913 258.512 10.511 261.578C12.0429 264.643 12.0487 266.179 12.0487 266.179C12.0487 266.179 6.67267 266.179 5.90385 269.25C5.13503 272.321 5.13503 273.089 3.59738 274.619C2.05974 276.149 -0.246726 276.155 0.522096 277.69C1.29092 279.226 2.05974 280.761 2.05974 281.529C2.05974 282.297 0.522096 283.833 1.29092 285.368C2.05974 286.904 3.59738 289.207 3.59738 289.969C3.59738 290.732 5.90385 295.338 8.20458 296.106C10.5053 296.874 17.4247 301.475 17.4247 301.475C17.4247 301.475 23.5695 297.636 25.1072 294.571C26.6448 291.505 26.6448 286.13 25.876 283.827C25.1072 281.523 24.3384 276.922 24.3384 276.922L26.3809 283.025C26.3809 283.025 39.7033 273.089 42.0098 268.482C44.3162 263.881 55.8371 245.465 55.8371 245.465V224.069C55.8371 224.069 51.993 220.912 48.1546 220.144C44.3105 219.377 38.5501 221.336 38.5501 221.336C38.5501 221.336 28.9456 239.322 28.9456 243.162C28.9456 247.001 25.8703 260.042 25.1014 261.578C24.3326 263.113 21.2573 263.113 21.2573 263.113H21.2688Z" fill="#CEA48D" stroke="black" stroke-width="1.31" stroke-miterlimit="10"/>
<path d="M4.36621 274.625C4.36621 274.625 13.5863 284.6 15.8928 284.6C18.1993 284.6 26.6506 282.297 25.8817 281.529C25.1129 280.761 23.5753 276.16 23.5753 276.16L20.5 276.928L13.5863 270.023C13.5863 270.023 11.2799 263.887 8.97914 265.422C6.67841 266.958 4.37195 271.141 4.37195 271.141V274.63L4.36621 274.625Z" fill="#CEA48D" stroke="black" stroke-width="1.31" stroke-miterlimit="10"/>
<path d="M94.7028 55.1163L95.7986 54.4058C95.7986 54.4058 101.943 72.054 102.712 73.5896C103.481 75.1252 103.223 76.0936 104.118 75.9905C105.013 75.8873 106.551 67.3841 106.551 67.3841C106.551 67.3841 108.088 67.3956 108.088 68.5759C108.088 69.7563 106.551 75.1252 107.319 77.4287C108.088 79.7321 111.927 85.1011 115.771 85.8689C119.615 86.6367 124.991 86.6367 127.297 85.1011C129.604 83.5655 132.639 80.2879 132.639 80.2879C132.639 80.2879 133.551 67.6248 134.211 66.685C134.871 65.7453 135.749 67.4529 135.749 67.4529C135.749 67.4529 134.98 77.7553 134.98 79.5086C134.98 81.262 139.587 75.8931 139.587 75.8931L147.27 64.3816L147.952 49.4895L150.46 48.269L149.576 66.4902L139.162 80.563C139.162 80.563 133.517 84.8375 131.945 85.7371C130.373 86.6367 126.77 88.8485 123.958 89.6564C121.147 90.47 114.113 88.8313 114.113 88.8313C114.113 88.8313 106.551 83.256 105.397 81.8751C104.244 80.4942 100.503 77.1365 100.503 77.1365L94.697 55.1163H94.7028Z" fill="#6B6B34"/>
<path d="M151.498 51.283C151.498 51.283 153.42 47.507 154.958 47.507C156.495 47.507 157.264 50.5782 157.264 50.5782C157.264 50.5782 155.463 58.3194 154.441 59.4367C153.42 60.554 151.114 62.0897 151.114 62.0897C151.114 62.0897 150.632 56.7207 152.026 54.8012C153.42 52.8816 154.958 51.0824 154.958 51.0824" fill="#CEA48D"/>
<path d="M151.498 51.283C151.498 51.283 153.42 47.507 154.958 47.507C156.495 47.507 157.264 50.5782 157.264 50.5782C157.264 50.5782 155.463 58.3194 154.441 59.4367C153.42 60.554 151.114 62.0897 151.114 62.0897C151.114 62.0897 150.632 56.7207 152.026 54.8012C153.42 52.8816 154.958 51.0824 154.958 51.0824" stroke="#A67C52" stroke-width="1.34" stroke-miterlimit="10"/>
<path d="M131.141 66.6851C131.141 66.6851 126.534 72.054 119.615 72.8218C114.422 73.4005 110.395 68.2207 110.395 68.2207L131.141 66.6851Z" fill="#1A1A1A" stroke="black" stroke-width="1.34" stroke-miterlimit="10"/>
<path d="M114.239 42.9001C114.239 43.4673 112.994 43.8971 111.422 44.4357C110.079 44.8941 109.184 45.2035 107.899 45.2035C106.614 45.2035 105.719 44.8941 104.376 44.4357C102.804 43.8971 101.559 43.4673 101.559 42.9001C101.559 42.3328 102.804 41.903 104.376 41.3644C105.719 40.906 106.614 40.5966 107.899 40.5966C109.184 40.5966 110.079 40.906 111.422 41.3644C112.994 41.903 114.239 42.3328 114.239 42.9001Z" fill="#F7F7F7" stroke="black" stroke-width="0.64" stroke-miterlimit="10"/>
<path d="M108.088 45.2035C109.362 45.2035 110.395 44.1722 110.395 42.9001C110.395 41.6279 109.362 40.5966 108.088 40.5966C106.815 40.5966 105.782 41.6279 105.782 42.9001C105.782 44.1722 106.815 45.2035 108.088 45.2035Z" fill="#4F3C1D" stroke="black" stroke-width="0.67" stroke-miterlimit="10"/>
<path d="M139.593 42.1323C139.593 42.6995 138.348 43.1293 136.776 43.6679C135.433 44.1263 134.538 44.4357 133.253 44.4357C131.968 44.4357 131.073 44.1263 129.73 43.6679C128.158 43.1293 126.913 42.6995 126.913 42.1323C126.913 41.565 128.158 41.1353 129.73 40.5966C131.073 40.1382 131.968 39.8288 133.253 39.8288C134.538 39.8288 135.433 40.1382 136.776 40.5966C138.348 41.1353 139.593 41.565 139.593 42.1323Z" fill="#F7F7F7" stroke="black" stroke-width="0.64" stroke-miterlimit="10"/>
<path d="M133.442 44.4357C134.716 44.4357 135.749 43.4044 135.749 42.1323C135.749 40.8601 134.716 39.8288 133.442 39.8288C132.168 39.8288 131.136 40.8601 131.136 42.1323C131.136 43.4044 132.168 44.4357 133.442 44.4357Z" fill="#4F3C1D" stroke="black" stroke-width="0.67" stroke-miterlimit="10"/>
<path d="M133.442 43.284C134.079 43.284 134.595 42.7683 134.595 42.1322C134.595 41.4962 134.079 40.9805 133.442 40.9805C132.805 40.9805 132.289 41.4962 132.289 42.1322C132.289 42.7683 132.805 43.284 133.442 43.284Z" fill="black" stroke="black" stroke-width="0.33" stroke-miterlimit="10"/>
<path d="M108.088 44.0518C108.725 44.0518 109.242 43.5361 109.242 42.9001C109.242 42.264 108.725 41.7484 108.088 41.7484C107.451 41.7484 106.935 42.264 106.935 42.9001C106.935 43.5361 107.451 44.0518 108.088 44.0518Z" fill="black" stroke="black" stroke-width="0.33" stroke-miterlimit="10"/>
<path d="M113.12 70.845C113.43 71.0857 113.757 71.3263 114.113 71.5555L126.551 70.9424C127.022 70.6731 127.464 70.3923 127.871 70.1173L119.747 70.5184L113.12 70.845Z" stroke="black" stroke-miterlimit="10"/>
<path d="M119.621 67.9055L110.756 68.5588C110.756 68.5588 111.646 69.6933 113.12 70.845L119.747 70.5184L127.871 70.1173C130.166 68.5645 131.497 67.0231 131.497 67.0231L119.615 67.8998L119.621 67.9055Z" fill="#E6E6E6" stroke="black" stroke-miterlimit="10"/>
<path d="M119.976 73.1656C122.518 72.8849 124.744 71.9795 126.552 70.9482L114.113 71.5613C115.69 72.5869 117.722 73.4178 119.976 73.1656Z" fill="#E6E6E6" stroke="black" stroke-miterlimit="10"/>
<path d="M211.042 237.025C211.042 237.025 194.139 259.274 187.225 263.113C180.312 266.952 156.495 281.529 156.495 281.529C156.495 281.529 147.275 282.297 143.437 277.69C139.599 273.083 131.91 268.482 131.91 268.482C131.91 268.482 124.997 263.881 124.228 262.345C123.459 260.81 123.511 259.326 120.412 259.303C117.314 259.28 118.852 265.417 118.852 265.417L128.841 276.928L132.685 276.16C132.685 276.16 126.54 277.696 123.465 279.232C120.389 280.767 115.013 287.672 115.013 288.44C115.013 289.207 115.013 293.041 116.551 293.809C118.089 294.576 120.395 294.576 120.395 294.576L129.615 287.672C129.615 287.672 120.395 293.041 120.395 295.344C120.395 297.648 121.933 299.945 121.933 299.945C121.933 299.945 121.933 301.481 124.239 300.713C126.546 299.945 134.228 293.809 134.228 293.809C134.228 293.809 121.933 301.481 123.47 303.017C125.008 304.552 125.777 306.856 127.315 306.856C128.852 306.856 132.691 305.32 132.691 305.32C132.691 305.32 128.083 307.623 128.846 309.159C129.61 310.695 130.384 312.998 139.604 312.23C148.824 311.462 155.738 307.629 155.738 307.629C155.738 307.629 211.254 276.321 213.073 274.711C214.891 273.1 238.713 254.684 238.713 254.684C238.713 254.684 233.337 245.476 228.724 242.405C224.117 239.334 211.053 237.036 211.053 237.036L211.042 237.025Z" fill="#CEA48D" stroke="black" stroke-width="1.31" stroke-miterlimit="10"/>
<path d="M85.8097 148.022C85.8097 148.022 81.2025 153.39 81.2025 161.063C81.2025 168.735 79.6649 190.99 79.6649 190.99C79.6649 190.99 88.1162 186.389 95.7986 188.687C103.481 190.99 118.077 193.288 118.077 193.288C118.077 193.288 125.76 184.08 129.604 181.777C133.448 179.473 141.899 178.705 141.899 178.705L148.813 153.385C148.813 153.385 105.788 147.248 85.8097 148.016V148.022Z" fill="#4CA0FF"/>
<path d="M137.671 206.719L98.4895 202.118C98.4895 202.118 104.634 199.047 110.016 198.279C115.392 197.511 118.083 193.294 118.083 193.294C118.083 193.294 120.389 181.015 129.994 179.101C139.599 177.187 141.905 178.717 141.905 178.717L137.676 206.725L137.671 206.719Z" fill="#ABBAAF"/>
<path d="M79.6476 191.03L77.7428 200.531L98.2887 202.049C98.2887 202.049 102.093 199.769 109.706 198.25C117.314 196.732 117.699 193.311 117.699 193.311C117.699 193.311 100.848 187.879 91.5816 188.125C82.3156 188.372 79.6476 191.03 79.6476 191.03Z" fill="#565E5D"/>
</g>
<defs>
<clipPath id="clip0_1_12">
<rect width="246" height="320" fill="white"/>
</clipPath>
</defs>
</svg>
