<svg id="Layer_1" data-name="Layer 1" xmlns="http://www.w3.org/2000/svg" viewBox="0 0 400 400">
  <defs>
    <style>
      .cls-1 {
        fill: #b5b5b5;
      }

      .cls-2 {
        fill: none;
        stroke: #000;
        stroke-miterlimit: 10;
        stroke-width: .5px;
      }

      .cls-3 {
        fill: #1a1a1a;
      }
    </style>
  </defs>
  <g>
    <rect class="cls-3" x="271.063" y="176.534" width="5.59" height="194.23" transform="translate(-113.288 273.797) rotate(-45)"/>
    <polygon class="cls-1" points="349.28 337.94 351.66 335.55 209.25 200.9 207.16 202.99 349.28 337.94"/>
    <line class="cls-2" x1="349.28" y1="337.94" x2="334.94" y2="354.66"/>
    <line class="cls-2" x1="344.5" y1="333.16" x2="330.18" y2="349.88"/>
    <line class="cls-2" x1="339.72" y1="328.38" x2="325.4" y2="345.1"/>
    <line class="cls-2" x1="334.94" y1="323.61" x2="320.62" y2="340.33"/>
    <line class="cls-2" x1="330.18" y1="318.83" x2="315.84" y2="335.55"/>
    <line class="cls-2" x1="325.4" y1="314.05" x2="311.06" y2="330.77"/>
    <line class="cls-2" x1="320.62" y1="309.28" x2="306.28" y2="326"/>
    <line class="cls-2" x1="315.84" y1="304.5" x2="301.5" y2="321.22"/>
    <line class="cls-2" x1="311.06" y1="299.72" x2="296.74" y2="316.44"/>
    <line class="cls-2" x1="306.28" y1="294.95" x2="291.96" y2="311.66"/>
    <line class="cls-2" x1="301.5" y1="290.17" x2="287.18" y2="306.89"/>
    <line class="cls-2" x1="296.74" y1="285.39" x2="282.4" y2="302.11"/>
    <line class="cls-2" x1="290.76" y1="281.81" x2="276.43" y2="298.53"/>
    <line class="cls-2" x1="285.99" y1="277.03" x2="271.65" y2="293.75"/>
    <line class="cls-2" x1="281.21" y1="272.25" x2="266.87" y2="288.97"/>
    <line class="cls-2" x1="276.43" y1="267.48" x2="262.09" y2="284.2"/>
    <line class="cls-2" x1="271.65" y1="262.7" x2="257.32" y2="279.42"/>
    <line class="cls-2" x1="266.87" y1="257.92" x2="252.54" y2="274.64"/>
    <line class="cls-2" x1="262.09" y1="253.15" x2="247.76" y2="269.87"/>
    <line class="cls-2" x1="257.32" y1="248.37" x2="242.99" y2="265.09"/>
    <line class="cls-2" x1="252.54" y1="243.59" x2="238.21" y2="260.31"/>
    <line class="cls-2" x1="247.76" y1="238.81" x2="233.43" y2="255.53"/>
    <line class="cls-2" x1="242.99" y1="234.04" x2="228.65" y2="250.76"/>
    <line class="cls-2" x1="238.21" y1="229.26" x2="223.88" y2="245.98"/>
    <line class="cls-2" x1="233.43" y1="224.48" x2="219.1" y2="241.2"/>
    <line class="cls-2" x1="228.65" y1="219.71" x2="214.32" y2="236.43"/>
    <line class="cls-2" x1="223.88" y1="214.93" x2="209.54" y2="231.65"/>
    <line class="cls-2" x1="219.1" y1="210.15" x2="204.77" y2="226.87"/>
    <line class="cls-2" x1="214.32" y1="205.37" x2="199.99" y2="222.09"/>
    <line class="cls-2" x1="209.54" y1="200.6" x2="195.21" y2="217.32"/>
    <line class="cls-2" x1="345.69" y1="341.52" x2="204.77" y2="205.37"/>
    <line class="cls-2" x1="341.51" y1="348.09" x2="199.4" y2="210.75"/>
  </g>
  <g>
    <rect class="cls-3" x="179.504" y="123.941" width="194.23" height="5.59" transform="translate(-8.596 232.719) rotate(-45)"/>
    <polygon class="cls-1" points="340.93 51.31 338.53 48.92 203.88 191.34 205.96 193.43 340.93 51.31"/>
    <line class="cls-2" x1="340.93" y1="51.31" x2="357.65" y2="65.64"/>
    <line class="cls-2" x1="336.15" y1="56.09" x2="352.87" y2="70.42"/>
    <line class="cls-2" x1="331.37" y1="60.87" x2="348.09" y2="75.2"/>
    <line class="cls-2" x1="326.59" y1="65.64" x2="343.31" y2="79.97"/>
    <line class="cls-2" x1="321.81" y1="70.42" x2="338.53" y2="84.75"/>
    <line class="cls-2" x1="317.03" y1="75.2" x2="333.75" y2="89.53"/>
    <line class="cls-2" x1="312.25" y1="79.97" x2="328.97" y2="94.31"/>
    <line class="cls-2" x1="307.49" y1="84.75" x2="324.21" y2="99.08"/>
    <line class="cls-2" x1="302.71" y1="89.53" x2="319.43" y2="103.86"/>
    <line class="cls-2" x1="297.93" y1="94.31" x2="314.65" y2="108.64"/>
    <line class="cls-2" x1="293.15" y1="99.08" x2="309.87" y2="113.41"/>
    <line class="cls-2" x1="288.37" y1="103.86" x2="305.09" y2="118.19"/>
    <line class="cls-2" x1="284.78" y1="109.83" x2="301.5" y2="124.16"/>
    <line class="cls-2" x1="280.01" y1="114.61" x2="296.74" y2="128.94"/>
    <line class="cls-2" x1="275.24" y1="119.39" x2="291.96" y2="133.72"/>
    <line class="cls-2" x1="270.46" y1="124.16" x2="287.18" y2="138.49"/>
    <line class="cls-2" x1="265.68" y1="128.94" x2="282.4" y2="143.27"/>
    <line class="cls-2" x1="260.9" y1="133.72" x2="277.62" y2="148.05"/>
    <line class="cls-2" x1="256.12" y1="138.49" x2="272.84" y2="152.83"/>
    <line class="cls-2" x1="251.34" y1="143.27" x2="268.06" y2="157.6"/>
    <line class="cls-2" x1="246.57" y1="148.05" x2="263.29" y2="162.38"/>
    <line class="cls-2" x1="241.79" y1="152.83" x2="258.51" y2="167.16"/>
    <line class="cls-2" x1="237.01" y1="157.6" x2="253.74" y2="171.93"/>
    <line class="cls-2" x1="232.24" y1="162.38" x2="248.97" y2="176.71"/>
    <line class="cls-2" x1="227.46" y1="167.16" x2="244.18" y2="181.49"/>
    <line class="cls-2" x1="222.68" y1="171.93" x2="239.4" y2="186.27"/>
    <line class="cls-2" x1="217.9" y1="176.71" x2="234.62" y2="191.04"/>
    <line class="cls-2" x1="213.13" y1="181.49" x2="229.85" y2="195.82"/>
    <line class="cls-2" x1="208.35" y1="186.27" x2="225.07" y2="200.6"/>
    <line class="cls-2" x1="203.57" y1="191.04" x2="220.29" y2="205.37"/>
    <line class="cls-2" x1="344.5" y1="54.89" x2="208.35" y2="195.82"/>
    <line class="cls-2" x1="351.07" y1="59.07" x2="213.72" y2="201.19"/>
  </g>
  <g>
    <rect class="cls-3" x="124.538" y="29.253" width="5.59" height="194.23" transform="translate(-52.061 127.05) rotate(-45)"/>
    <polygon class="cls-1" points="51.9 62.06 49.51 64.45 191.93 199.1 194.02 197.01 51.9 62.06"/>
    <line class="cls-2" x1="51.9" y1="62.06" x2="66.24" y2="45.34"/>
    <line class="cls-2" x1="56.68" y1="66.84" x2="71.01" y2="50.12"/>
    <line class="cls-2" x1="61.45" y1="71.61" x2="75.79" y2="54.89"/>
    <line class="cls-2" x1="66.24" y1="76.39" x2="80.56" y2="59.67"/>
    <line class="cls-2" x1="71.01" y1="81.17" x2="85.34" y2="64.45"/>
    <line class="cls-2" x1="75.79" y1="85.95" x2="90.12" y2="69.23"/>
    <line class="cls-2" x1="80.56" y1="90.72" x2="94.89" y2="74"/>
    <line class="cls-2" x1="85.34" y1="95.5" x2="99.67" y2="78.78"/>
    <line class="cls-2" x1="90.12" y1="100.28" x2="104.45" y2="83.56"/>
    <line class="cls-2" x1="94.89" y1="105.05" x2="109.24" y2="88.33"/>
    <line class="cls-2" x1="99.67" y1="109.83" x2="114" y2="93.11"/>
    <line class="cls-2" x1="104.45" y1="114.61" x2="118.79" y2="97.89"/>
    <line class="cls-2" x1="110.42" y1="118.19" x2="124.75" y2="101.47"/>
    <line class="cls-2" x1="115.2" y1="122.97" x2="129.54" y2="106.25"/>
    <line class="cls-2" x1="119.97" y1="127.75" x2="134.32" y2="111.03"/>
    <line class="cls-2" x1="124.75" y1="132.52" x2="139.08" y2="115.8"/>
    <line class="cls-2" x1="129.54" y1="137.3" x2="143.86" y2="120.58"/>
    <line class="cls-2" x1="134.32" y1="142.08" x2="148.65" y2="125.36"/>
    <line class="cls-2" x1="139.08" y1="146.85" x2="153.41" y2="130.13"/>
    <line class="cls-2" x1="143.86" y1="151.63" x2="158.19" y2="134.91"/>
    <line class="cls-2" x1="148.65" y1="156.41" x2="162.97" y2="139.69"/>
    <line class="cls-2" x1="153.41" y1="161.19" x2="167.74" y2="144.47"/>
    <line class="cls-2" x1="158.19" y1="165.96" x2="172.52" y2="149.24"/>
    <line class="cls-2" x1="162.97" y1="170.74" x2="177.3" y2="154.02"/>
    <line class="cls-2" x1="167.74" y1="175.52" x2="182.08" y2="158.8"/>
    <line class="cls-2" x1="172.52" y1="180.29" x2="186.85" y2="163.57"/>
    <line class="cls-2" x1="177.3" y1="185.07" x2="191.63" y2="168.35"/>
    <line class="cls-2" x1="182.08" y1="189.85" x2="196.41" y2="173.13"/>
    <line class="cls-2" x1="186.85" y1="194.63" x2="201.18" y2="177.91"/>
    <line class="cls-2" x1="191.63" y1="199.4" x2="205.96" y2="182.68"/>
    <line class="cls-2" x1="55.49" y1="58.48" x2="196.41" y2="194.63"/>
    <line class="cls-2" x1="59.66" y1="51.91" x2="201.79" y2="189.25"/>
  </g>
  <g>
    <rect class="cls-3" x="26.253" y="271.655" width="194.23" height="5.59" transform="translate(-157.932 167.619) rotate(-45)"/>
    <polygon class="cls-1" points="59.07 349.88 61.45 352.27 196.11 209.85 194.02 207.76 59.07 349.88"/>
    <line class="cls-2" x1="59.07" y1="349.88" x2="42.35" y2="335.55"/>
    <line class="cls-2" x1="63.84" y1="345.1" x2="47.12" y2="330.77"/>
    <line class="cls-2" x1="68.62" y1="340.33" x2="51.9" y2="326"/>
    <line class="cls-2" x1="73.4" y1="335.55" x2="56.68" y2="321.22"/>
    <line class="cls-2" x1="78.17" y1="330.77" x2="61.45" y2="316.44"/>
    <line class="cls-2" x1="82.95" y1="326" x2="66.24" y2="311.66"/>
    <line class="cls-2" x1="87.74" y1="321.22" x2="71.01" y2="306.89"/>
    <line class="cls-2" x1="92.51" y1="316.44" x2="75.79" y2="302.11"/>
    <line class="cls-2" x1="97.28" y1="311.66" x2="80.56" y2="297.33"/>
    <line class="cls-2" x1="102.06" y1="306.89" x2="85.34" y2="292.56"/>
    <line class="cls-2" x1="106.84" y1="302.11" x2="90.12" y2="287.78"/>
    <line class="cls-2" x1="111.61" y1="297.33" x2="94.89" y2="283"/>
    <line class="cls-2" x1="115.2" y1="291.36" x2="98.49" y2="277.03"/>
    <line class="cls-2" x1="119.97" y1="286.59" x2="103.25" y2="272.25"/>
    <line class="cls-2" x1="124.75" y1="281.81" x2="108.03" y2="267.48"/>
    <line class="cls-2" x1="129.54" y1="277.03" x2="112.81" y2="262.7"/>
    <line class="cls-2" x1="134.32" y1="272.25" x2="117.6" y2="257.92"/>
    <line class="cls-2" x1="139.08" y1="267.48" x2="122.36" y2="253.15"/>
    <line class="cls-2" x1="143.86" y1="262.7" x2="127.15" y2="248.37"/>
    <line class="cls-2" x1="148.65" y1="257.92" x2="131.93" y2="243.59"/>
    <line class="cls-2" x1="153.41" y1="253.15" x2="136.69" y2="238.81"/>
    <line class="cls-2" x1="158.19" y1="248.37" x2="141.47" y2="234.04"/>
    <line class="cls-2" x1="162.97" y1="243.59" x2="146.25" y2="229.26"/>
    <line class="cls-2" x1="167.74" y1="238.81" x2="151.04" y2="224.48"/>
    <line class="cls-2" x1="172.52" y1="234.04" x2="155.8" y2="219.71"/>
    <line class="cls-2" x1="177.3" y1="229.26" x2="160.58" y2="214.93"/>
    <line class="cls-2" x1="182.08" y1="224.48" x2="165.36" y2="210.15"/>
    <line class="cls-2" x1="186.85" y1="219.71" x2="170.13" y2="205.37"/>
    <line class="cls-2" x1="191.63" y1="214.93" x2="174.91" y2="200.6"/>
    <line class="cls-2" x1="196.41" y1="210.15" x2="179.69" y2="195.82"/>
    <line class="cls-2" x1="55.49" y1="346.3" x2="191.63" y2="205.37"/>
    <line class="cls-2" x1="48.91" y1="342.12" x2="186.26" y2="200"/>
  </g>
</svg>