<?xml version="1.0" encoding="UTF-8"?>
<svg id="Layer_1" xmlns="http://www.w3.org/2000/svg" version="1.1" viewBox="0 0 407 440">
  <!-- Generator: Adobe Illustrator 29.6.1, SVG Export Plug-In . SVG Version: 2.1.1 Build 9)  -->
  <defs>
    <style>
      .st0 {
        fill: #b5b5b5;
      }

      .st1 {
        fill: none;
        stroke: #000;
        stroke-miterlimit: 10;
        stroke-width: .5px;
      }

      .st2 {
        fill: #1a1a1a;
      }
    </style>
  </defs>
  <g>
    <rect class="st2" x="274.56" y="196.53" width="5.59" height="194.23" transform="translate(-126.4 282.13) rotate(-45)"/>
    <polygon class="st0" points="352.78 357.94 355.16 355.55 212.75 220.9 210.66 222.99 352.78 357.94"/>
    <line class="st1" x1="352.78" y1="357.94" x2="338.44" y2="374.66"/>
    <line class="st1" x1="348" y1="353.16" x2="333.68" y2="369.88"/>
    <line class="st1" x1="343.22" y1="348.38" x2="328.9" y2="365.1"/>
    <line class="st1" x1="338.44" y1="343.61" x2="324.12" y2="360.33"/>
    <line class="st1" x1="333.68" y1="338.83" x2="319.34" y2="355.55"/>
    <line class="st1" x1="328.9" y1="334.05" x2="314.56" y2="350.77"/>
    <line class="st1" x1="324.12" y1="329.28" x2="309.78" y2="346"/>
    <line class="st1" x1="319.34" y1="324.5" x2="305" y2="341.22"/>
    <line class="st1" x1="314.56" y1="319.72" x2="300.24" y2="336.44"/>
    <line class="st1" x1="309.78" y1="314.95" x2="295.46" y2="331.66"/>
    <line class="st1" x1="305" y1="310.17" x2="290.68" y2="326.89"/>
    <line class="st1" x1="300.24" y1="305.39" x2="285.9" y2="322.11"/>
    <line class="st1" x1="294.26" y1="301.81" x2="279.93" y2="318.53"/>
    <line class="st1" x1="289.49" y1="297.03" x2="275.15" y2="313.75"/>
    <line class="st1" x1="284.71" y1="292.25" x2="270.37" y2="308.97"/>
    <line class="st1" x1="279.93" y1="287.48" x2="265.59" y2="304.2"/>
    <line class="st1" x1="275.15" y1="282.7" x2="260.82" y2="299.42"/>
    <line class="st1" x1="270.37" y1="277.92" x2="256.04" y2="294.64"/>
    <line class="st1" x1="265.59" y1="273.15" x2="251.26" y2="289.87"/>
    <line class="st1" x1="260.82" y1="268.37" x2="246.49" y2="285.09"/>
    <line class="st1" x1="256.04" y1="263.59" x2="241.71" y2="280.31"/>
    <line class="st1" x1="251.26" y1="258.81" x2="236.93" y2="275.53"/>
    <line class="st1" x1="246.49" y1="254.04" x2="232.15" y2="270.76"/>
    <line class="st1" x1="241.71" y1="249.26" x2="227.38" y2="265.98"/>
    <line class="st1" x1="236.93" y1="244.48" x2="222.6" y2="261.2"/>
    <line class="st1" x1="232.15" y1="239.71" x2="217.82" y2="256.43"/>
    <line class="st1" x1="227.38" y1="234.93" x2="213.04" y2="251.65"/>
    <line class="st1" x1="222.6" y1="230.15" x2="208.27" y2="246.87"/>
    <line class="st1" x1="217.82" y1="225.37" x2="203.49" y2="242.09"/>
    <line class="st1" x1="213.04" y1="220.6" x2="198.71" y2="237.32"/>
    <line class="st1" x1="349.19" y1="361.52" x2="208.27" y2="225.37"/>
    <line class="st1" x1="345.01" y1="368.09" x2="202.9" y2="230.75"/>
  </g>
  <g>
    <rect class="st2" x="183" y="143.94" width="194.23" height="5.59" transform="translate(-21.71 241.05) rotate(-45)"/>
    <polygon class="st0" points="344.43 71.31 342.03 68.92 207.38 211.34 209.46 213.43 344.43 71.31"/>
    <line class="st1" x1="344.43" y1="71.31" x2="361.15" y2="85.64"/>
    <line class="st1" x1="339.65" y1="76.09" x2="356.37" y2="90.42"/>
    <line class="st1" x1="334.87" y1="80.87" x2="351.59" y2="95.2"/>
    <line class="st1" x1="330.09" y1="85.64" x2="346.81" y2="99.97"/>
    <line class="st1" x1="325.31" y1="90.42" x2="342.03" y2="104.75"/>
    <line class="st1" x1="320.53" y1="95.2" x2="337.25" y2="109.53"/>
    <line class="st1" x1="315.75" y1="99.97" x2="332.47" y2="114.31"/>
    <line class="st1" x1="310.99" y1="104.75" x2="327.71" y2="119.08"/>
    <line class="st1" x1="306.21" y1="109.53" x2="322.93" y2="123.86"/>
    <line class="st1" x1="301.43" y1="114.31" x2="318.15" y2="128.64"/>
    <line class="st1" x1="296.65" y1="119.08" x2="313.37" y2="133.41"/>
    <line class="st1" x1="291.87" y1="123.86" x2="308.59" y2="138.19"/>
    <line class="st1" x1="288.28" y1="129.83" x2="305" y2="144.16"/>
    <line class="st1" x1="283.51" y1="134.61" x2="300.24" y2="148.94"/>
    <line class="st1" x1="278.74" y1="139.39" x2="295.46" y2="153.72"/>
    <line class="st1" x1="273.96" y1="144.16" x2="290.68" y2="158.49"/>
    <line class="st1" x1="269.18" y1="148.94" x2="285.9" y2="163.27"/>
    <line class="st1" x1="264.4" y1="153.72" x2="281.12" y2="168.05"/>
    <line class="st1" x1="259.62" y1="158.49" x2="276.34" y2="172.83"/>
    <line class="st1" x1="254.84" y1="163.27" x2="271.56" y2="177.6"/>
    <line class="st1" x1="250.07" y1="168.05" x2="266.79" y2="182.38"/>
    <line class="st1" x1="245.29" y1="172.83" x2="262.01" y2="187.16"/>
    <line class="st1" x1="240.51" y1="177.6" x2="257.24" y2="191.93"/>
    <line class="st1" x1="235.74" y1="182.38" x2="252.47" y2="196.71"/>
    <line class="st1" x1="230.96" y1="187.16" x2="247.68" y2="201.49"/>
    <line class="st1" x1="226.18" y1="191.93" x2="242.9" y2="206.27"/>
    <line class="st1" x1="221.4" y1="196.71" x2="238.12" y2="211.04"/>
    <line class="st1" x1="216.63" y1="201.49" x2="233.35" y2="215.82"/>
    <line class="st1" x1="211.85" y1="206.27" x2="228.57" y2="220.6"/>
    <line class="st1" x1="207.07" y1="211.04" x2="223.79" y2="225.37"/>
    <line class="st1" x1="348" y1="74.89" x2="211.85" y2="215.82"/>
    <line class="st1" x1="354.57" y1="79.07" x2="217.22" y2="221.19"/>
  </g>
  <g>
    <rect class="st2" x="128.03" y="49.25" width="5.59" height="194.23" transform="translate(-65.17 135.38) rotate(-45)"/>
    <polygon class="st0" points="55.4 82.06 53.01 84.45 195.43 219.1 197.52 217.01 55.4 82.06"/>
    <line class="st1" x1="55.4" y1="82.06" x2="69.74" y2="65.34"/>
    <line class="st1" x1="60.18" y1="86.84" x2="74.51" y2="70.12"/>
    <line class="st1" x1="64.95" y1="91.61" x2="79.29" y2="74.89"/>
    <line class="st1" x1="69.74" y1="96.39" x2="84.06" y2="79.67"/>
    <line class="st1" x1="74.51" y1="101.17" x2="88.84" y2="84.45"/>
    <line class="st1" x1="79.29" y1="105.95" x2="93.62" y2="89.23"/>
    <line class="st1" x1="84.06" y1="110.72" x2="98.39" y2="94"/>
    <line class="st1" x1="88.84" y1="115.5" x2="103.17" y2="98.78"/>
    <line class="st1" x1="93.62" y1="120.28" x2="107.95" y2="103.56"/>
    <line class="st1" x1="98.39" y1="125.05" x2="112.74" y2="108.33"/>
    <line class="st1" x1="103.17" y1="129.83" x2="117.5" y2="113.11"/>
    <line class="st1" x1="107.95" y1="134.61" x2="122.29" y2="117.89"/>
    <line class="st1" x1="113.92" y1="138.19" x2="128.25" y2="121.47"/>
    <line class="st1" x1="118.7" y1="142.97" x2="133.04" y2="126.25"/>
    <line class="st1" x1="123.47" y1="147.75" x2="137.82" y2="131.03"/>
    <line class="st1" x1="128.25" y1="152.52" x2="142.58" y2="135.8"/>
    <line class="st1" x1="133.04" y1="157.3" x2="147.36" y2="140.58"/>
    <line class="st1" x1="137.82" y1="162.08" x2="152.15" y2="145.36"/>
    <line class="st1" x1="142.58" y1="166.85" x2="156.91" y2="150.13"/>
    <line class="st1" x1="147.36" y1="171.63" x2="161.69" y2="154.91"/>
    <line class="st1" x1="152.15" y1="176.41" x2="166.47" y2="159.69"/>
    <line class="st1" x1="156.91" y1="181.19" x2="171.24" y2="164.47"/>
    <line class="st1" x1="161.69" y1="185.96" x2="176.02" y2="169.24"/>
    <line class="st1" x1="166.47" y1="190.74" x2="180.8" y2="174.02"/>
    <line class="st1" x1="171.24" y1="195.52" x2="185.58" y2="178.8"/>
    <line class="st1" x1="176.02" y1="200.29" x2="190.35" y2="183.57"/>
    <line class="st1" x1="180.8" y1="205.07" x2="195.13" y2="188.35"/>
    <line class="st1" x1="185.58" y1="209.85" x2="199.91" y2="193.13"/>
    <line class="st1" x1="190.35" y1="214.63" x2="204.68" y2="197.91"/>
    <line class="st1" x1="195.13" y1="219.4" x2="209.46" y2="202.68"/>
    <line class="st1" x1="58.99" y1="78.48" x2="199.91" y2="214.63"/>
    <line class="st1" x1="63.16" y1="71.91" x2="205.29" y2="209.25"/>
  </g>
  <g>
    <rect class="st2" x="29.76" y="291.65" width="194.23" height="5.59" transform="translate(-171.05 175.96) rotate(-45)"/>
    <polygon class="st0" points="62.57 369.88 64.95 372.27 199.61 229.85 197.52 227.76 62.57 369.88"/>
    <line class="st1" x1="62.57" y1="369.88" x2="45.85" y2="355.55"/>
    <line class="st1" x1="67.34" y1="365.1" x2="50.62" y2="350.77"/>
    <line class="st1" x1="72.12" y1="360.33" x2="55.4" y2="346"/>
    <line class="st1" x1="76.9" y1="355.55" x2="60.18" y2="341.22"/>
    <line class="st1" x1="81.67" y1="350.77" x2="64.95" y2="336.44"/>
    <line class="st1" x1="86.45" y1="346" x2="69.74" y2="331.66"/>
    <line class="st1" x1="91.24" y1="341.22" x2="74.51" y2="326.89"/>
    <line class="st1" x1="96.01" y1="336.44" x2="79.29" y2="322.11"/>
    <line class="st1" x1="100.78" y1="331.66" x2="84.06" y2="317.33"/>
    <line class="st1" x1="105.56" y1="326.89" x2="88.84" y2="312.56"/>
    <line class="st1" x1="110.34" y1="322.11" x2="93.62" y2="307.78"/>
    <line class="st1" x1="115.11" y1="317.33" x2="98.39" y2="303"/>
    <line class="st1" x1="118.7" y1="311.36" x2="101.99" y2="297.03"/>
    <line class="st1" x1="123.47" y1="306.59" x2="106.75" y2="292.25"/>
    <line class="st1" x1="128.25" y1="301.81" x2="111.53" y2="287.48"/>
    <line class="st1" x1="133.04" y1="297.03" x2="116.31" y2="282.7"/>
    <line class="st1" x1="137.82" y1="292.25" x2="121.1" y2="277.92"/>
    <line class="st1" x1="142.58" y1="287.48" x2="125.86" y2="273.15"/>
    <line class="st1" x1="147.36" y1="282.7" x2="130.65" y2="268.37"/>
    <line class="st1" x1="152.15" y1="277.92" x2="135.43" y2="263.59"/>
    <line class="st1" x1="156.91" y1="273.15" x2="140.19" y2="258.81"/>
    <line class="st1" x1="161.69" y1="268.37" x2="144.97" y2="254.04"/>
    <line class="st1" x1="166.47" y1="263.59" x2="149.75" y2="249.26"/>
    <line class="st1" x1="171.24" y1="258.81" x2="154.54" y2="244.48"/>
    <line class="st1" x1="176.02" y1="254.04" x2="159.3" y2="239.71"/>
    <line class="st1" x1="180.8" y1="249.26" x2="164.08" y2="234.93"/>
    <line class="st1" x1="185.58" y1="244.48" x2="168.86" y2="230.15"/>
    <line class="st1" x1="190.35" y1="239.71" x2="173.63" y2="225.37"/>
    <line class="st1" x1="195.13" y1="234.93" x2="178.41" y2="220.6"/>
    <line class="st1" x1="199.91" y1="230.15" x2="183.19" y2="215.82"/>
    <line class="st1" x1="58.99" y1="366.3" x2="195.13" y2="225.37"/>
    <line class="st1" x1="52.41" y1="362.12" x2="189.76" y2="220"/>
  </g>
</svg>