<svg width="28" height="24" viewBox="0 0 28 24" fill="none" xmlns="http://www.w3.org/2000/svg">
<path d="M7.5 19.5C5.9 19.5 5.83333 19.1667 6 19C6.33333 18.3333 7.2 16.8 8 16C9 15 8.5 12.5 8.5 11.5C8.5 10.5 9 9 9.5 7.5C9.65705 7.02884 10.0608 6.70567 10.5097 6.49951C9.86889 6.31111 9.27889 6 9 6C8.6 6 7.83333 5 7.5 4.5C6.33333 4.66667 4.1 4.9 4.5 4.5C5 4 7.5 2.5 8 2.5C8.4 2.5 8.5 1.83333 8.5 1.5C8.83333 1.66667 9.7 2 10.5 2H12.5L13.5 3.5C13.6667 4 14.1 5.1 14.5 5.5C14.9 5.9 15.3333 5.66667 15.5 5.5C16 6.5 17 8.6 17 9C17 9.4 17.3333 10.8333 17.5 11.5C17.5 11.8333 17.6 12.7 18 13.5C18.5 14.5 18.5 15 18.5 15.5C18.5 15.9 19.5 16 20 16L19.5 18.5L20.5 19.5C21.5 19.3333 23.7 19 24.5 19C25.5 19 27.5 18 27 19C26.5 20 22.5 23 19.5 23C16.5 23 5 22.5 3.5 22C2.3 21.6 1 20.8333 0.5 20.5C0.5 20 0.8 19 2 19C3.2 19 5.5 19.6667 6.5 20C6.86164 19.8553 7.31116 19.6793 7.80157 19.4923C7.70347 19.4973 7.60306 19.5 7.5 19.5Z" fill="#5A5A5A"/>
<path d="M6 19C5.83333 19.1667 5.9 19.5 7.5 19.5C9.5 19.5 10.5 18.5 13 18.5C15 18.5 18.1667 18.5 19.5 18.5L20 16C19.5 16 18.5 15.9 18.5 15.5C18.5 15 18.5 14.5 18 13.5C17.6 12.7 17.5 11.8333 17.5 11.5C17.3333 10.8333 17 9.4 17 9C17 8.6 16 6.5 15.5 5.5C15.3333 5.66667 14.9 5.9 14.5 5.5C14.1 5.1 13.6667 4 13.5 3.5L12.5 2C12.1667 2 11.3 2 10.5 2C9.7 2 8.83333 1.66667 8.5 1.5C8.5 1.83333 8.4 2.5 8 2.5C7.5 2.5 5 4 4.5 4.5C4.1 4.9 6.33333 4.66667 7.5 4.5C7.83333 5 8.6 6 9 6C9.5 6 11 7 12 6.5C13 6 10 6 9.5 7.5C9 9 8.5 10.5 8.5 11.5C8.5 12.5 9 15 8 16C7.2 16.8 6.33333 18.3333 6 19ZM0.5 20.5C0.5 20 0.8 19 2 19C3.2 19 5.5 19.6667 6.5 20C8.16667 19.3333 11.7 18 12.5 18C13.3 18 17.1667 18 19 18L20.5 19.5C21.5 19.3333 23.7 19 24.5 19C25.5 19 27.5 18 27 19C26.5 20 22.5 23 19.5 23C16.5 23 5 22.5 3.5 22C2.3 21.6 1 20.8333 0.5 20.5Z" stroke="black"/>
</svg>
